<?xml version="1.0" encoding="UTF-8"?>
<svg width="24px" height="24px" viewBox="0 0 24 24" version="1.1" xmlns="http://www.w3.org/2000/svg" xmlns:xlink="http://www.w3.org/1999/xlink">
    <title>椭圆形</title>
    <g id="组件" stroke="none" stroke-width="1" fill="none" fill-rule="evenodd">
        <g id="file-text">
            <circle id="椭圆形" fill="#12810A" cx="12" cy="12" r="12"></circle>
            <g id="编组" transform="translate(5.000000, 4.000000)" fill-rule="nonzero">
                <rect id="矩形" fill="#000000" opacity="0" x="0" y="0" width="16" height="16"></rect>
                <path d="M12.1597902,4.62445055 L8.77377622,1.3728022 C8.67937063,1.28214286 8.55192308,1.23076923 8.41818182,1.23076923 L1.73426573,1.23076923 C1.45576923,1.23076923 1.23076923,1.44684066 1.23076923,1.71428571 L1.23076923,14.2857143 C1.23076923,14.5531593 1.45576923,14.7692308 1.73426573,14.7692308 L11.8041958,14.7692308 C12.0826923,14.7692308 12.3076923,14.5531593 12.3076923,14.2857143 L12.3076923,4.96744505 C12.3076923,4.83901099 12.2541958,4.71510989 12.1597902,4.62445055 Z M11.1465035,5.18956044 L8.18531469,5.18956044 L8.18531469,2.34587912 L11.1465035,5.18956044 Z M11.1748252,13.6813187 L2.36363636,13.6813187 L2.36363636,2.31868132 L7.11538462,2.31868132 L7.11538462,5.58241758 C7.11538462,5.93296703 7.41118881,6.21703297 7.77622378,6.21703297 L11.1748252,6.21703297 L11.1748252,13.6813187 Z M6.64335664,9.60164835 L3.74825175,9.60164835 C3.67902098,9.60164835 3.62237762,9.65604396 3.62237762,9.72252747 L3.62237762,10.4478022 C3.62237762,10.5142857 3.67902098,10.5686813 3.74825175,10.5686813 L6.64335664,10.5686813 C6.71258741,10.5686813 6.76923077,10.5142857 6.76923077,10.4478022 L6.76923077,9.72252747 C6.76923077,9.65604396 6.71258741,9.60164835 6.64335664,9.60164835 Z M3.62237762,7.66758242 L3.62237762,8.39285714 C3.62237762,8.45934066 3.67902098,8.51373626 3.74825175,8.51373626 L9.79020979,8.51373626 C9.85944056,8.51373626 9.91608392,8.45934066 9.91608392,8.39285714 L9.91608392,7.66758242 C9.91608392,7.6010989 9.85944056,7.5467033 9.79020979,7.5467033 L3.74825175,7.5467033 C3.67902098,7.5467033 3.62237762,7.6010989 3.62237762,7.66758242 Z" id="形状" fill="#FFFFFF"></path>
            </g>
        </g>
    </g>
</svg>