<?xml version="1.0" encoding="UTF-8"?>
<svg width="70px" height="70px" viewBox="0 0 70 70" version="1.1" xmlns="http://www.w3.org/2000/svg" xmlns:xlink="http://www.w3.org/1999/xlink">
    <title>椭圆形</title>
    <g id="页面-1" stroke="none" stroke-width="1" fill="none" fill-rule="evenodd">
        <g id="版本07" transform="translate(-82.000000, -374.000000)">
            <rect id="矩形" fill="#FFFFFF" x="0" y="0" width="1920" height="1080"></rect>
            <g id="01" transform="translate(27.000000, 354.000000)">
                <rect id="矩形" fill="#0980E9" x="0" y="0" width="180" height="200" rx="10"></rect>
                <circle id="椭圆形" fill="#EAF8FF" cx="90" cy="55" r="35"></circle>
                <g id="项目" transform="translate(72.000000, 37.000000)" fill-rule="nonzero">
                    <rect id="矩形" fill="#000000" opacity="0" x="0" y="0" width="36" height="36"></rect>
                    <path d="M31.3308984,22.947182 L22.3425,22.947182 C21.8516818,22.9456428 21.4195414,23.2702506 21.2842969,23.7420703 C20.8546529,25.2587608 19.4700229,26.3056401 17.8936523,26.3056401 C16.3172818,26.3056401 14.9326518,25.2587608 14.5030078,23.7420703 C14.3675569,23.2703927 13.9355439,22.9458807 13.4448047,22.947182 L4.66910156,22.947182 C3.46898249,22.947182 2.49609375,23.9200762 2.49609375,25.1201953 L2.49609375,31.5418359 C2.49609375,32.741955 3.46898249,33.7148437 4.66910156,33.7148437 L31.3308984,33.7148437 C32.5310175,33.7148437 33.5039062,32.741955 33.5039062,31.5418359 L33.5039062,25.1201953 C33.5039062,23.9200762 32.5310175,22.947182 31.3308984,22.947182 Z M22.7684795,4.99957031 L22.7684795,5.11699219 C22.6177295,5.04667969 22.6177295,5.023125 22.7684795,4.99957031 C22.6177295,4.95316406 22.7684795,4.92925781 22.7684795,4.88285156 L22.7684795,4.99957031 Z" id="形状" fill="#0091FF"></path>
                    <path d="M29.7632812,2.28515625 L11.8828125,2.28515625 C11.2275,2.28515625 10.6875,2.89335937 10.6875,3.61898438 L10.6875,21.2410547 L15.4413281,21.2410547 C15.4413281,22.7387109 16.5178125,23.9554688 17.8284375,23.9554688 C19.1622656,23.9554688 20.2151953,22.7387109 20.2151953,21.2410547 L30.9568359,21.2410547 L30.9568359,3.61898438 C30.9568359,2.87015625 30.4185937,2.28515625 29.7632812,2.28515625 L29.7632812,2.28515625 Z M15.7359375,8.20371094 L25.9133203,8.20371094 C26.4005859,8.20371094 26.7612891,8.60203125 26.7823828,9.07277344 C26.8034766,9.54351562 26.3671875,9.9421875 25.9133203,9.9421875 L15.7366406,9.9421875 C15.249375,9.9421875 14.8886719,9.54386719 14.8675781,9.07277344 C14.8464844,8.60167969 15.2820703,8.20371094 15.7366406,8.20371094 L15.7359375,8.20371094 Z M25.9238672,16.0136719 L15.7471875,16.0136719 C15.2599219,16.0136719 14.8992188,15.6157031 14.878125,15.1446094 C14.8570313,14.6735156 15.2926172,14.2755469 15.7471875,14.2755469 L25.9238672,14.2755469 C26.4111328,14.2755469 26.7718359,14.6738672 26.7929297,15.1446094 C26.8140234,15.6153516 26.3784375,16.0136719 25.9238672,16.0136719 L25.9238672,16.0136719 Z M6.83226562,4.99957031 L8.30355469,4.99957031 L8.30355469,21.2417578 L4.72289062,21.2417578 L4.72289062,7.10894531 C4.72289062,5.94396967 5.66728998,4.99957031 6.83226562,4.99957031 Z" id="形状" fill="#0091FF"></path>
                </g>
            </g>
        </g>
    </g>
</svg>